<svg xmlns="http://www.w3.org/2000/svg" width="1200" height="700" viewBox="0 0 1200 700">
  <rect width="1200" height="700" fill="#f8fafc"/>
  <rect x="40" y="30" width="1120" height="56" rx="10" fill="#ffffff" stroke="#cbd5e1"/>
  <text x="70" y="66" font-family="Arial, sans-serif" font-size="22" fill="#0f172a">Return &amp; Warranty Autopilot - Dashboard</text>
  <rect x="40" y="110" width="250" height="120" rx="12" fill="#ffffff" stroke="#cbd5e1"/>
  <rect x="320" y="110" width="250" height="120" rx="12" fill="#ffffff" stroke="#cbd5e1"/>
  <rect x="600" y="110" width="250" height="120" rx="12" fill="#ffffff" stroke="#cbd5e1"/>
  <rect x="880" y="110" width="280" height="120" rx="12" fill="#ffffff" stroke="#cbd5e1"/>
  <text x="60" y="150" font-family="Arial, sans-serif" font-size="14" fill="#64748b">Total Purchases</text>
  <text x="60" y="195" font-family="Arial, sans-serif" font-size="32" fill="#0f172a">3</text>
  <text x="340" y="150" font-family="Arial, sans-serif" font-size="14" fill="#64748b">Returns Closing Soon</text>
  <text x="340" y="195" font-family="Arial, sans-serif" font-size="32" fill="#0f172a">2</text>
  <text x="620" y="150" font-family="Arial, sans-serif" font-size="14" fill="#64748b">Active Warranties</text>
  <text x="620" y="195" font-family="Arial, sans-serif" font-size="32" fill="#0f172a">4</text>
  <text x="900" y="150" font-family="Arial, sans-serif" font-size="14" fill="#64748b">Expired Returns</text>
  <text x="900" y="195" font-family="Arial, sans-serif" font-size="32" fill="#0f172a">2</text>
  <rect x="40" y="260" width="1120" height="390" rx="12" fill="#ffffff" stroke="#cbd5e1"/>
  <text x="60" y="295" font-family="Arial, sans-serif" font-size="18" fill="#0f172a">Recent Purchases</text>
  <line x1="40" y1="320" x2="1160" y2="320" stroke="#e2e8f0"/>
  <text x="60" y="350" font-family="Arial, sans-serif" font-size="13" fill="#475569">Amazon</text>
  <text x="280" y="350" font-family="Arial, sans-serif" font-size="13" fill="#475569">AMZ-114-9923110-4432109</text>
  <text x="610" y="350" font-family="Arial, sans-serif" font-size="13" fill="#475569">$89.97</text>
  <rect x="760" y="334" width="160" height="22" rx="11" fill="#fef3c7"/>
  <text x="776" y="349" font-family="Arial, sans-serif" font-size="11" fill="#92400e">return_closing_soon</text>
  <text x="60" y="390" font-family="Arial, sans-serif" font-size="13" fill="#475569">Apple</text>
  <text x="280" y="390" font-family="Arial, sans-serif" font-size="13" fill="#475569">W892401455</text>
  <text x="610" y="390" font-family="Arial, sans-serif" font-size="13" fill="#475569">$1,299.00</text>
  <rect x="760" y="374" width="140" height="22" rx="11" fill="#fee2e2"/>
  <text x="776" y="389" font-family="Arial, sans-serif" font-size="11" fill="#b91c1c">return_expired</text>
</svg>
