<svg xmlns="http://www.w3.org/2000/svg" width="1200" height="700" viewBox="0 0 1200 700">
  <rect width="1200" height="700" fill="#f8fafc"/>
  <rect x="40" y="30" width="1120" height="56" rx="10" fill="#ffffff" stroke="#cbd5e1"/>
  <text x="70" y="66" font-family="Arial, sans-serif" font-size="22" fill="#0f172a">Connect Gmail (Demo Mode)</text>
  <rect x="40" y="110" width="1120" height="180" rx="12" fill="#ffffff" stroke="#cbd5e1"/>
  <text x="60" y="145" font-family="Arial, sans-serif" font-size="14" fill="#334155">Connected: Yes</text>
  <text x="60" y="170" font-family="Arial, sans-serif" font-size="14" fill="#334155">Mode: Demo</text>
  <text x="60" y="195" font-family="Arial, sans-serif" font-size="14" fill="#334155">Synced Emails: 3</text>
  <rect x="60" y="220" width="130" height="34" rx="8" fill="#1d4ed8"/>
  <text x="81" y="242" font-family="Arial, sans-serif" font-size="13" fill="#ffffff">Connect Gmail</text>
  <rect x="210" y="220" width="110" height="34" rx="8" fill="#ffffff" stroke="#94a3b8"/>
  <text x="237" y="242" font-family="Arial, sans-serif" font-size="13" fill="#334155">Sync Emails</text>
  <rect x="40" y="320" width="1120" height="330" rx="12" fill="#ffffff" stroke="#cbd5e1"/>
  <text x="60" y="355" font-family="Arial, sans-serif" font-size="18" fill="#0f172a">Recent Synced Emails</text>
  <line x1="40" y1="380" x2="1160" y2="380" stroke="#e2e8f0"/>
  <text x="60" y="410" font-family="Arial, sans-serif" font-size="13" fill="#475569">Amazon order confirmation</text>
  <text x="460" y="410" font-family="Arial, sans-serif" font-size="13" fill="#475569">orders@amazon.com</text>
  <rect x="760" y="394" width="170" height="22" rx="11" fill="#dbeafe"/>
  <text x="775" y="409" font-family="Arial, sans-serif" font-size="11" fill="#1e40af">purchase_confirmation</text>
  <text x="960" y="410" font-family="Arial, sans-serif" font-size="13" fill="#475569">Mar 06, 2026</text>
</svg>
