<svg xmlns="http://www.w3.org/2000/svg" width="1536" height="1024" viewBox="0 0 1536 1024">
  <defs>
    <linearGradient id="bg" x1="0" y1="0" x2="1" y2="1">
      <stop offset="0%" stop-color="#6b8dff"/>
      <stop offset="55%" stop-color="#9fd0ff"/>
      <stop offset="100%" stop-color="#eef1ff"/>
    </linearGradient>
    <radialGradient id="glow" cx="50%" cy="30%" r="70%">
      <stop offset="0%" stop-color="#ffffff" stop-opacity="0.6"/>
      <stop offset="100%" stop-color="#ffffff" stop-opacity="0"/>
    </radialGradient>
  </defs>
  <rect width="1536" height="1024" fill="url(#bg)"/>
  <rect width="1536" height="1024" fill="url(#glow)"/>

  <text x="768" y="170" text-anchor="middle" font-family="Arial, sans-serif" font-size="76" fill="#f8fbff" font-weight="700">
    Return &amp; Warranty Autopilot
  </text>
  <text x="768" y="235" text-anchor="middle" font-family="Arial, sans-serif" font-size="50" fill="#eef3ff">
    Track purchases, warranties, and subscriptions automatically.
  </text>

  <rect x="525" y="380" width="470" height="156" rx="18" fill="#ffffffee" stroke="#dbeafe"/>
  <text x="560" y="435" font-family="Arial, sans-serif" font-size="44" fill="#1e3a8a" font-weight="700">Recent Purchase</text>
  <text x="560" y="485" font-family="Arial, sans-serif" font-size="56" fill="#0f172a" font-weight="700">Amazon  $129.99</text>

  <rect x="905" y="460" width="380" height="140" rx="18" fill="#ffffffee" stroke="#dbeafe"/>
  <text x="938" y="520" font-family="Arial, sans-serif" font-size="46" fill="#0f3f66" font-weight="700">Warranty Expires</text>
  <text x="938" y="570" font-family="Arial, sans-serif" font-size="52" fill="#0f172a" font-weight="700">in 60 Days</text>

  <rect x="360" y="520" width="320" height="150" rx="18" fill="#ffffffee" stroke="#dbeafe"/>
  <text x="395" y="585" font-family="Arial, sans-serif" font-size="48" fill="#334155" font-weight="700">Return By</text>
  <text x="450" y="640" font-family="Arial, sans-serif" font-size="58" fill="#a16207" font-weight="700">May 15</text>

  <rect x="680" y="650" width="470" height="170" rx="18" fill="#ffffffee" stroke="#dbeafe"/>
  <text x="715" y="715" font-family="Arial, sans-serif" font-size="44" fill="#1e3a8a" font-weight="700">Subscription Renewal</text>
  <text x="715" y="770" font-family="Arial, sans-serif" font-size="56" fill="#0f172a" font-weight="700">Netflix in 3 Days</text>

  <rect x="1210" y="560" width="210" height="210" rx="36" fill="#2563ebcc" stroke="#bfdbfe"/>
  <circle cx="1315" cy="655" r="56" fill="#e0f2fe"/>
  <circle cx="1296" cy="648" r="9" fill="#0f172a"/>
  <circle cx="1334" cy="648" r="9" fill="#0f172a"/>
  <path d="M1294 677c10 12 31 12 41 0" stroke="#0f172a" stroke-width="5" fill="none" stroke-linecap="round"/>
</svg>
